<?xml version="1.0" encoding="UTF-8"?>
<svg width="97px" height="25px" viewBox="0 0 97 25" version="1.1" xmlns="http://www.w3.org/2000/svg" xmlns:xlink="http://www.w3.org/1999/xlink">
    <title>编组 3备份</title>
    <g id="页面-1" stroke="none" stroke-width="1" fill="none" fill-rule="evenodd">
        <g id="我的项目组空数据" transform="translate(-16.000000, -11.000000)">
            <g id="编组-3备份" transform="translate(16.000000, 11.000000)">
                <path d="M83.8592802,0 C85.1939835,0 86.4778578,0.508620015 87.4651505,1.42173753 L87.6585818,1.60972348 L88.1746086,2.1382158 L88.6749189,2.65386255 L89.3175512,3.32140954 L89.9322431,3.96611996 L90.6613165,4.73989405 L91.2131421,5.33322218 L91.6086754,5.76323177 L91.8636328,6.0427684 L92.2329718,6.4513687 L92.4704664,6.71663248 L92.8136111,7.10382349 L93.1410393,7.47816893 L93.4527509,7.8396688 L93.748746,8.18832309 L93.9373446,8.41362286 L94.1189581,8.63321349 L94.3782812,8.95189478 L94.5424319,9.15721254 L94.7755608,9.45448454 L94.9929731,9.73891097 L95.1291832,9.92139216 L95.3204013,10.1844093 L95.4391486,10.3526176 L95.5509107,10.5151168 L95.6556877,10.6719069 L95.7534796,10.8229878 L95.7997561,10.8963873 L95.8870703,11.0389045 L95.9078074,11.0736417 L95.9078074,11.0736417 L95.928108,11.1080221 L96.0049445,11.2419756 L96.0747958,11.3702199 L96.1226003,11.4626565 L96.1226003,11.4626565 L96.1664757,11.5518818 L96.2188642,11.6658532 C96.3329547,11.925126 96.39,12.1377741 96.39,12.3037975 C96.39,12.3670818 96.3817116,12.4368935 96.3651347,12.5132325 L96.334053,12.6326366 L96.3025828,12.7286151 L96.2641192,12.830101 L96.2422649,12.8829093 L96.1933112,12.9926564 L96.1373642,13.107911 L96.1067681,13.1676036 L96.1067681,13.1676036 L96.0744238,13.228673 L96.00449,13.3549425 L95.9275628,13.4867195 L95.8436423,13.6240039 L95.7990595,13.6947114 L95.7046488,13.8402571 L95.6799535,13.877504 L95.6799535,13.877504 L95.654821,13.9150952 L95.5499203,14.068902 L95.4380263,14.2282163 L95.3191388,14.393038 L95.193258,14.5633672 L95.0603838,14.7392039 L94.9205162,14.9205481 L94.6976023,15.2028908 L94.5402512,15.3980036 L94.3759068,15.5986239 L94.204569,15.8047516 L94.0262379,16.0163868 L93.7456285,16.3441661 L93.4492841,16.6843371 L93.0296813,17.1571747 L92.8093899,17.4018547 L92.4658402,17.7792011 L92.1065553,18.1689394 L91.7315354,18.5710694 L91.4727803,18.8460405 L91.0715352,19.2688235 L90.654555,19.7039983 L90.0741045,20.3035076 L89.3092037,21.0838736 L88.829283,21.5686156 L88.3336273,22.0657494 L87.6482761,22.7478706 C86.7064506,23.6813439 85.4685418,24.228731 84.1672589,24.293508 L83.9062262,24.3 L18.1030267,24.3 C16.7127562,24.3 15.3767185,23.7435755 14.3761884,22.7478706 L13.6936232,22.0657494 L13.1999823,21.5686156 L12.7220126,21.0838736 L11.9602211,20.3035076 L11.3821302,19.7039983 L10.966845,19.2688235 L10.567231,18.8460405 L10.3095278,18.5710694 L9.93603231,18.1689394 L9.57820797,17.7792011 L9.23605477,17.4018547 L9.01665882,17.1571747 L8.59876178,16.6843371 L8.30362199,16.3441661 L8.02415334,16.0163868 L7.8465471,15.8047516 L7.67590581,15.5986239 L7.51222946,15.3980036 L7.35551807,15.2028908 L7.13351027,14.9205481 L6.99421125,14.7392039 L6.86187719,14.5633672 L6.73650808,14.393038 L6.61810392,14.2282163 L6.5066647,14.068902 L6.40219044,13.9150952 C6.38535848,13.8899197 6.36881672,13.8649736 6.35256517,13.8402571 L6.25853834,13.6947114 L6.21413677,13.6240039 L6.13055737,13.4867195 L6.05394291,13.3549425 L5.9842934,13.228673 C5.96223772,13.1875011 5.94134287,13.1472471 5.92160884,13.107911 L5.86588924,12.9926564 L5.81713458,12.8829093 L5.79536911,12.830101 L5.75706188,12.7286151 L5.72571961,12.6326366 C5.6885732,12.508337 5.67,12.398724 5.67,12.3037975 C5.67,12.1377741 5.72681337,11.925126 5.84044012,11.6658532 L5.89261567,11.5518818 C5.92044263,11.4934687 5.95087837,11.4329148 5.98392288,11.3702199 L6.05349028,11.2419756 L6.13001441,11.1080221 L6.17088526,11.0389045 L6.25784451,10.8963873 L6.30393291,10.8229878 L6.40132726,10.6719069 L6.50567836,10.5151168 L6.6169862,10.3526176 L6.73525077,10.1844093 L6.92569152,9.92139216 L7.06134795,9.73891097 L7.27787647,9.45448454 L7.51005766,9.15721254 L7.67354104,8.95189478 L7.93181,8.63321349 L8.11268524,8.41362286 L8.30051721,8.18832309 L8.59530905,7.8396688 L8.90575357,7.47816893 L9.23185074,7.10382349 L9.57360058,6.71663248 L9.81012973,6.4513687 L10.1779673,6.0427684 L10.4318883,5.76323177 L10.8258137,5.33322218 L11.3753962,4.73989405 L12.1015059,3.96611996 L12.713699,3.32140954 L13.353719,2.65386255 L13.8519955,2.1382158 L14.3659247,1.60972348 C15.3715865,0.578696551 16.7318857,0 18.1497819,0 L83.8592802,0 Z M59.1471166,4.698 L53.2164954,4.698 L53.161426,4.69934907 C52.5776346,4.72801685 52.113124,5.2099801 52.113124,5.80033358 C52.113124,6.40913561 52.6071202,6.90266717 53.2164954,6.90266717 L53.2164954,6.90266717 L59.1471166,6.90266717 L59.2398339,6.90349177 C62.0154149,6.95289822 64.2502093,9.21619248 64.2502093,12.00096 C64.2502093,14.8166694 61.9654769,17.0992528 59.1471166,17.0992528 L59.1471166,17.0992528 L53.2164954,17.0992528 L53.161426,17.1006019 C52.5776346,17.1292697 52.113124,17.6112329 52.113124,18.2015864 C52.113124,18.8103884 52.6071202,19.30392 53.2164954,19.30392 L53.2164954,19.30392 L59.1471166,19.30392 L59.2679981,19.3029416 C63.2493545,19.2384507 66.4569521,15.9939403 66.4569521,12.00096 C66.4569521,7.96764656 63.1842272,4.698 59.1471166,4.698 L59.1471166,4.698 Z M33.9764567,4.698 L28.0458355,4.698 C24.0087248,4.698 20.736,7.96764656 20.736,12.00096 C20.736,15.9939403 23.9435976,19.2384507 27.924954,19.3029416 L28.0458355,19.30392 L33.9764567,19.30392 C34.5858319,19.30392 35.0798281,18.8103884 35.0798281,18.2015864 C35.0798281,17.6112329 34.6153174,17.1292697 34.0315261,17.1006019 L33.9764567,17.0992528 L28.0458355,17.0992528 C25.2274752,17.0992528 22.9427428,14.8166694 22.9427428,12.00096 C22.9427428,9.21619248 25.1775372,6.95289822 27.9531181,6.90349177 L28.0458355,6.90266717 L33.9764567,6.90266717 C34.5858319,6.90266717 35.0798281,6.40913561 35.0798281,5.80033358 C35.0798281,5.2099801 34.6153174,4.72801685 34.0315261,4.69934907 L33.9764567,4.698 Z M44.6712992,4.99608 L41.9239934,4.99608 C37.9790262,4.99608 34.7809983,8.19899908 34.7809983,12.15 C34.7809983,16.1010009 37.9790262,19.30392 41.9239934,19.30392 L41.9239934,19.30392 L44.6712992,19.30392 C48.6162664,19.30392 51.8142942,16.1010009 51.8142942,12.15 C51.8142942,8.19899908 48.6162664,4.99608 44.6712992,4.99608 L44.6712992,4.99608 Z M44.6712992,7.19728615 L44.762143,7.19810508 C47.4513574,7.24662577 49.6164496,9.44508399 49.6164496,12.15 C49.6164496,14.8853083 47.4024303,17.1027138 44.6712992,17.1027138 L44.6712992,17.1027138 L41.9239934,17.1027138 L41.8331495,17.1018949 C39.1439351,17.0533742 36.978843,14.854916 36.978843,12.15 C36.978843,9.41469167 39.1928622,7.19728615 41.9239934,7.19728615 L41.9239934,7.19728615 L44.6712992,7.19728615 Z" id="形状结合" fill="#357EFF"></path>
                <path d="M18.1497819,1.0658141e-14 C16.7318857,1.0658141e-14 15.3715865,0.578696551 14.3659247,1.60972348 L14.3659247,1.60972348 L13.8519955,2.1382158 L13.353719,2.65386255 L12.713699,3.32140954 L12.1015059,3.96611996 L11.3753962,4.73989405 L10.8258137,5.33322218 L10.4318883,5.76323177 L10.1779673,6.0427684 L9.81012973,6.4513687 L9.57360058,6.71663248 L9.23185074,7.10382349 L8.90575357,7.47816893 L8.59530905,7.8396688 L8.30051721,8.18832309 L8.11268524,8.41362286 L7.93181,8.63321349 L7.67354104,8.95189478 L7.51005766,9.15721254 L7.27787647,9.45448454 L7.06134795,9.73891097 L6.92569152,9.92139216 L6.73525077,10.1844093 L6.6169862,10.3526176 L6.50567836,10.5151168 L6.40132726,10.6719069 L6.30393291,10.8229878 L6.25784451,10.8963873 L6.17088526,11.0389045 L6.13001441,11.1080221 L6.05349028,11.2419756 L5.98392288,11.3702199 C5.95087837,11.4329148 5.92044263,11.4934687 5.89261567,11.5518818 L5.89261567,11.5518818 L5.84044012,11.6658532 C5.72681337,11.925126 5.67,12.1377741 5.67,12.3037975 C5.67,12.398724 5.6885732,12.508337 5.72571961,12.6326366 L5.72571961,12.6326366 L5.75706188,12.7286151 L5.79536911,12.830101 L5.81713458,12.8829093 L5.86588924,12.9926564 L5.92160884,13.107911 C5.94134287,13.1472471 5.96223772,13.1875011 5.9842934,13.228673 L5.9842934,13.228673 L6.05394291,13.3549425 L6.13055737,13.4867195 L6.21413677,13.6240039 L6.25853834,13.6947114 L6.35256517,13.8402571 C6.36881672,13.8649736 6.38535848,13.8899197 6.40219044,13.9150952 L6.40219044,13.9150952 L6.5066647,14.068902 L6.61810392,14.2282163 L6.73650808,14.393038 L6.86187719,14.5633672 L6.99421125,14.7392039 L7.13351027,14.9205481 L7.35551807,15.2028908 L7.51222946,15.3980036 L7.67590581,15.5986239 L7.8465471,15.8047516 L8.02415334,16.0163868 L8.30362199,16.3441661 L8.59876178,16.6843371 L9.01665882,17.1571747 L9.23605477,17.4018547 L9.57820797,17.7792011 L9.93603231,18.1689394 L10.3095278,18.5710694 L10.567231,18.8460405 L10.966845,19.2688235 L11.3821302,19.7039983 L11.9602211,20.3035076 L12.7220126,21.0838736 L13.1999823,21.5686156 L13.6936232,22.0657494 L14.3761884,22.7478706 C15.3767185,23.7435755 16.7127562,24.3 18.1030267,24.3 L18.1030267,24.3 L13.1897543,24.3 C11.3371437,24.299997 9.56011857,23.5654224 8.24824661,22.2573101 C2.74941554,16.7742379 -2.27373675e-13,13.4564004 -2.27373675e-13,12.3037975 C-2.27373675e-13,11.1520023 2.74556358,7.756182 8.23669075,2.11633671 C9.55411119,0.763236309 11.3624646,1.1005055e-14 13.2509765,1.0658141e-14 Z" id="形状结合" fill="#03D4FC"></path>
                <g id="编组-2" transform="translate(67.736000, 3.888000)" fill="#01D8FF" fill-rule="nonzero">
                    <path d="M14.884,7.0956 C15.5281849,7.0956 16.0504,7.61781507 16.0504,8.262 C16.0504,8.87397569 15.5791009,9.37587357 14.9796629,9.42453342 L14.884,9.4284 L4.516,9.4284 C3.87181507,9.4284 3.3496,8.90618493 3.3496,8.262 C3.3496,7.65002431 3.8208991,7.14812643 4.42033706,7.09946658 L4.516,7.0956 L14.884,7.0956 Z" id="直线"></path>
                    <path d="M10.996,1.2636 C11.6401849,1.2636 12.1624,1.78581507 12.1624,2.43 C12.1624,3.04197569 11.6911009,3.54387357 11.0916629,3.59253342 L10.996,3.5964 L3.22,3.5964 C2.57581507,3.5964 2.0536,3.07418493 2.0536,2.43 C2.0536,1.81802431 2.5248991,1.31612643 3.12433706,1.26746658 L3.22,1.2636 L10.996,1.2636 Z" id="直线备份"></path>
                    <path d="M10.996,12.9276 C11.6401849,12.9276 12.1624,13.4498151 12.1624,14.094 C12.1624,14.7059757 11.6911009,15.2078736 11.0916629,15.2565334 L10.996,15.2604 L3.22,15.2604 C2.57581507,15.2604 2.0536,14.7381849 2.0536,14.094 C2.0536,13.4820243 2.5248991,12.9801264 3.12433706,12.9314666 L3.22,12.9276 L10.996,12.9276 Z" id="直线备份-2"></path>
                </g>
            </g>
        </g>
    </g>
</svg>